<svg xmlns="http://www.w3.org/2000/svg" viewBox="0 0 128 128" fill="none"><style>.struct{stroke:#003D66}.halo{fill:#FAF7F2;stroke:#FAF7F2}.vine{stroke:#3E6B47}.leaf{fill:#3E6B47;stroke:#FAF7F2}@media(prefers-color-scheme:dark){.struct{stroke:#4FA8DA}.halo{fill:#15110D;stroke:#15110D}.vine{stroke:#6FBF8F}.leaf{fill:#6FBF8F;stroke:#15110D}}</style><g transform="rotate(45 64 64)" class="struct" stroke-width="3.4" stroke-linecap="round"><line x1="36" y1="36" x2="36" y2="92"/><line x1="55" y1="36" x2="55" y2="92"/><line x1="73" y1="36" x2="73" y2="92"/><line x1="92" y1="36" x2="92" y2="92"/><line x1="36" y1="36" x2="92" y2="36"/><line x1="36" y1="55" x2="92" y2="55"/><line x1="36" y1="73" x2="92" y2="73"/><line x1="36" y1="92" x2="92" y2="92"/></g><path class="halo" fill="none" stroke-width="9.5" stroke-linecap="round" d="M54 104 C48 84 67 82 64 64 C61 46 80 44 76 26"/><path class="vine" fill="none" stroke-width="5" stroke-linecap="round" d="M54 104 C48 84 67 82 64 64 C61 46 80 44 76 26"/><g class="leaf" stroke-width="3" paint-order="stroke" stroke-linejoin="round"><path d="M0 0 C5 -3 8.5 -10 0 -16 C-8.5 -10 -5 -3 0 0 Z" transform="translate(63 67) rotate(-58)"/><path d="M0 0 C5 -3 8.5 -10 0 -16 C-8.5 -10 -5 -3 0 0 Z" transform="translate(71 45) rotate(46)"/><path d="M0 0 C4 -2.4 6.8 -8 0 -13 C-6.8 -8 -4 -2.4 0 0 Z" transform="translate(56 90) rotate(-32)"/></g><circle cx="76" cy="26" r="10" class="halo"/><circle cx="76" cy="26" r="8.2" fill="#B66074"/><circle cx="54" cy="104" r="6.6" class="halo"/><circle cx="54" cy="104" r="5.2" fill="#C8A040"/></svg>
